<svg width="353" height="286" viewBox="0 0 353 286" fill="none" xmlns="http://www.w3.org/2000/svg">
<path d="M14.2976 271.922H287.06V239.367V65.7927H58.9053H14.2976V271.922ZM143.644 107.546C143.644 103.627 146.762 100.508 150.679 100.508C154.596 100.508 157.714 103.627 157.714 107.546V161.858H212.075C215.992 161.858 219.109 164.978 219.109 168.897C219.109 172.817 215.992 175.936 212.075 175.936H157.714V230.248C157.714 234.167 154.596 237.287 150.679 237.287C146.762 237.287 143.644 234.167 143.644 230.248V175.936H89.3633C85.4461 175.936 82.3284 172.817 82.3284 168.897C82.3284 164.978 85.4461 161.858 89.3633 161.858H143.644V107.546ZM58.9053 1.48242H345.738C349.655 1.48242 352.773 4.60195 352.773 8.52136V239.367C352.773 243.286 349.655 246.406 345.738 246.406H301.13V278.961C301.13 282.88 298.012 286 294.095 286H7.26269C3.34553 286 0.227783 282.88 0.227783 278.961V58.7538C0.227783 54.8344 3.34553 51.7149 7.26269 51.7149H51.8704V8.52136C51.8704 4.60195 54.9882 1.48242 58.9053 1.48242ZM338.703 15.5603H65.9402V51.7149H294.095C298.012 51.7149 301.13 54.8344 301.13 58.7538V232.328H338.703V15.5603Z" fill="#3C3C3C"/>
</svg>
