<svg width="368" height="368" viewBox="0 0 368 368" fill="none" xmlns="http://www.w3.org/2000/svg">
<path d="M184 360.088C281.251 360.088 360.088 281.251 360.088 184C360.088 86.7493 281.251 7.91199 184 7.91199C86.7493 7.91199 7.91199 86.7493 7.91199 184C7.91199 281.251 86.7493 360.088 184 360.088Z" stroke="#3C3C3C" stroke-width="14.618"/>
<path d="M184.716 184.211V45.821" stroke="#3C3C3C" stroke-width="15" stroke-linecap="round" stroke-linejoin="round"/>
<path d="M184 184L115.166 252.834" stroke="#3C3C3C" stroke-width="15" stroke-linecap="round" stroke-linejoin="round"/>
<path d="M184.848 202.164C194.412 202.164 202.164 194.412 202.164 184.849C202.164 175.285 194.412 167.533 184.848 167.533C175.285 167.533 167.533 175.285 167.533 184.849C167.533 194.412 175.285 202.164 184.848 202.164Z" fill="#3C3C3C"/>
</svg>
