<svg width="434" height="457" viewBox="0 0 434 457" fill="none" xmlns="http://www.w3.org/2000/svg">
<path d="M373.991 73.8874C358.287 57.1368 -14.4142 56.0899 7.57099 73.8874C29.5562 91.685 -7.0858 423.557 7.57099 440.307C22.2278 457.058 395.976 457.058 373.991 440.307C352.006 423.557 389.695 90.6381 373.991 73.8874Z" fill="#F1F1F1"/>
<path d="M373.991 73.8874C358.287 57.1368 -14.4142 56.0899 7.57099 73.8874C29.5562 91.685 -7.0858 423.557 7.57099 440.307C22.2278 457.058 395.976 457.058 373.991 440.307C352.006 423.557 389.695 90.6381 373.991 73.8874Z" fill="#D5D5D5"/>
<path d="M373.991 73.8874C358.287 57.1368 -14.4142 56.0899 7.57099 73.8874C29.5562 91.685 -7.0858 423.557 7.57099 440.307C22.2278 457.058 395.976 457.058 373.991 440.307C352.006 423.557 389.695 90.6381 373.991 73.8874Z" stroke="black" stroke-width="8"/>
<path d="M399.117 40.3862C383.413 23.6356 10.7118 22.5887 32.6969 40.3862C54.6821 58.1837 18.0401 390.055 32.6969 406.806C47.3537 423.557 421.102 423.557 399.117 406.806C377.132 390.055 414.821 57.1368 399.117 40.3862Z" fill="#F1F1F1"/>
<path d="M399.117 40.3862C383.413 23.6356 10.7118 22.5887 32.6969 40.3862C54.6821 58.1837 18.0401 390.055 32.6969 406.806C47.3537 423.557 421.102 423.557 399.117 406.806C377.132 390.055 414.821 57.1368 399.117 40.3862Z" fill="#F1F1F1"/>
<path d="M399.117 40.3862C383.413 23.6356 10.7118 22.5887 32.6969 40.3862C54.6821 58.1837 18.0401 390.055 32.6969 406.806C47.3537 423.557 421.102 423.557 399.117 406.806C377.132 390.055 414.821 57.1368 399.117 40.3862Z" stroke="black" stroke-width="8"/>
<path d="M423.813 16.9585C408.109 0.207902 35.4075 -0.838997 57.3926 16.9585C79.3778 34.7561 42.7359 366.628 57.3926 383.378C72.0494 400.129 445.798 400.129 423.813 383.378C401.827 366.628 439.517 33.7092 423.813 16.9585Z" fill="white" stroke="black" stroke-width="8"/>
<path d="M108.691 45.2252C216.523 58.8351 282.479 26.3808 384.03 45.2252" stroke="black" stroke-width="3"/>
<path d="M108.691 94.199C216.523 107.809 282.479 75.3545 384.03 94.199" stroke="black" stroke-width="3"/>
<path d="M108.691 307.769C216.523 321.379 282.479 288.925 384.03 307.769" stroke="black" stroke-width="3"/>
<path d="M108.691 356.974C216.523 370.584 282.479 338.13 384.03 356.974" stroke="black" stroke-width="3"/>
<path d="M123.589 135.709H138.053C142.618 135.709 145.754 136.946 147.461 139.421C148.997 141.682 149.765 144.434 149.765 147.677C149.765 150.92 148.912 153.693 147.205 155.997C145.498 158.258 143.194 159.88 140.293 160.861L152.517 180.509H145.285L134.277 161.885H129.733V180.509H123.589V135.709ZM129.733 140.445V156.765H134.661C137.477 156.765 139.632 156.04 141.125 154.589C142.618 153.096 143.365 151.048 143.365 148.445C143.365 145.8 142.725 143.816 141.445 142.493C140.208 141.128 138.138 140.445 135.237 140.445H129.733ZM169.42 146.141C173.089 146.141 175.799 147.25 177.548 149.469C178.999 151.261 179.895 154.269 180.236 158.493C180.364 160.157 180.428 162.226 180.428 164.701L177.804 165.085H161.228C161.228 170.461 162.657 173.853 165.516 175.261C166.711 175.858 168.353 176.157 170.444 176.157C172.535 176.157 174.945 175.474 177.676 174.109L179.468 178.077C175.927 180.21 172.364 181.277 168.78 181.277C159.649 181.277 155.084 175.517 155.084 163.997C155.084 158.536 156.279 154.205 158.668 151.005C161.1 147.762 164.684 146.141 169.42 146.141ZM174.284 160.541C174.284 157.128 173.943 154.738 173.26 153.373C172.577 151.965 170.999 151.261 168.524 151.261C166.092 151.261 164.364 152.093 163.34 153.757C162.316 155.378 161.676 157.64 161.42 160.541H174.284ZM185.577 155.805C185.577 152.861 186.601 150.514 188.649 148.765C190.739 147.016 193.427 146.141 196.713 146.141C199.998 146.141 202.558 146.952 204.393 148.573C206.227 150.152 207.273 152.285 207.529 154.973L201.577 156.189C201.491 154.61 200.979 153.373 200.041 152.477C199.102 151.581 197.886 151.133 196.393 151.133C194.899 151.133 193.747 151.496 192.937 152.221C192.126 152.904 191.721 153.757 191.721 154.781C191.721 155.805 191.891 156.637 192.233 157.277C192.574 157.917 193.129 158.493 193.897 159.005C194.921 159.73 196.35 160.477 198.185 161.245C200.019 161.97 201.363 162.568 202.217 163.037C203.07 163.464 204.051 164.082 205.161 164.893C207.251 166.386 208.297 168.541 208.297 171.357C208.297 174.13 207.187 176.477 204.969 178.397C202.75 180.317 199.827 181.277 196.201 181.277C192.574 181.277 188.969 180.125 185.385 177.821L187.625 173.597C191.635 175.304 194.729 176.157 196.905 176.157C200.403 176.157 202.153 174.792 202.153 172.061C202.153 170.824 201.598 169.8 200.489 168.989C199.422 168.136 197.971 167.325 196.137 166.557C194.302 165.746 192.937 165.128 192.041 164.701C191.187 164.232 190.185 163.57 189.033 162.717C186.729 161.01 185.577 158.706 185.577 155.805ZM216.534 151.581C217.643 149.917 219.179 148.594 221.142 147.613C223.147 146.632 225.473 146.141 228.118 146.141C230.806 146.141 233.046 146.653 234.838 147.677C236.673 148.701 238.017 150.13 238.87 151.965C240.363 155.25 241.11 159.282 241.11 164.061C241.11 168.669 240.043 172.573 237.91 175.773C236.801 177.48 235.243 178.824 233.238 179.805C231.275 180.786 228.95 181.277 226.262 181.277C223.617 181.277 221.377 180.765 219.542 179.741C217.75 178.717 216.427 177.266 215.574 175.389C214.081 172.146 213.334 168.136 213.334 163.357C213.334 158.749 214.401 154.824 216.534 151.581ZM232.854 153.565C232.299 152.882 231.531 152.328 230.55 151.901C229.569 151.474 228.374 151.261 226.966 151.261C225.601 151.261 224.427 151.517 223.446 152.029C222.465 152.541 221.718 153.16 221.206 153.885C220.694 154.568 220.31 155.549 220.054 156.829C219.67 158.749 219.478 160.818 219.478 163.037C219.478 165.256 219.521 166.898 219.606 167.965C219.691 168.989 219.883 170.056 220.182 171.165C220.523 172.274 220.993 173.17 221.59 173.853C222.87 175.389 224.833 176.157 227.478 176.157C228.843 176.157 230.017 175.901 230.998 175.389C231.979 174.877 232.726 174.28 233.238 173.597C233.75 172.872 234.134 171.869 234.39 170.589C234.774 168.669 234.966 166.6 234.966 164.381C234.966 162.162 234.923 160.541 234.838 159.517C234.753 158.45 234.539 157.362 234.198 156.253C233.899 155.144 233.451 154.248 232.854 153.565ZM258.801 181.277C255.899 181.277 253.51 180.381 251.633 178.589C249.755 176.797 248.817 174.024 248.817 170.269V147.165L254.577 146.589V169.565C254.577 173.96 256.646 176.157 260.785 176.157C263.515 176.157 265.883 175.154 267.889 173.149V147.165L273.649 146.589V171.293L274.161 180.189L269.489 180.829L268.785 176.925H268.529C266.097 179.826 262.854 181.277 258.801 181.277ZM297.519 146.141C298.628 146.141 299.46 146.248 300.015 146.461C300.612 146.632 301.103 146.781 301.487 146.909C301.871 146.994 302.105 147.058 302.191 147.101L301.167 152.861C299.887 152.434 298.351 152.221 296.559 152.221C294.809 152.221 293.209 152.989 291.759 154.525C290.351 156.018 289.647 157.832 289.647 159.965V180.509H283.887V156.125L283.375 147.229L288.047 146.589L288.751 153.053H289.007C289.732 150.962 290.82 149.298 292.271 148.061C293.764 146.781 295.513 146.141 297.519 146.141ZM305.022 163.933C305.022 158.6 306.259 154.312 308.734 151.069C311.251 147.784 314.579 146.141 318.718 146.141C322.899 146.141 325.672 147.122 327.038 149.085C328.446 151.005 329.15 153.821 329.15 157.533L323.39 157.917C323.39 155.485 323.027 153.778 322.302 152.797C321.576 151.773 320.104 151.261 317.886 151.261C313.406 151.261 311.166 155.421 311.166 163.741C311.166 172.018 314.024 176.157 319.742 176.157C322.259 176.157 324.926 175.453 327.742 174.045L329.47 177.885C328.403 178.824 326.888 179.634 324.926 180.317C322.963 180.957 320.851 181.277 318.59 181.277C309.544 181.277 305.022 175.496 305.022 163.933ZM348.733 146.141C352.402 146.141 355.111 147.25 356.861 149.469C358.311 151.261 359.207 154.269 359.549 158.493C359.677 160.157 359.741 162.226 359.741 164.701L357.117 165.085H340.541C340.541 170.461 341.97 173.853 344.829 175.261C346.023 175.858 347.666 176.157 349.757 176.157C351.847 176.157 354.258 175.474 356.989 174.109L358.781 178.077C355.239 180.21 351.677 181.277 348.093 181.277C338.962 181.277 334.397 175.517 334.397 163.997C334.397 158.536 335.591 154.205 337.981 151.005C340.413 147.762 343.997 146.141 348.733 146.141ZM353.597 160.541C353.597 157.128 353.255 154.738 352.573 153.373C351.89 151.965 350.311 151.261 347.837 151.261C345.405 151.261 343.677 152.093 342.653 153.757C341.629 155.378 340.989 157.64 340.733 160.541H353.597ZM180.933 213.709H195.397C199.962 213.709 203.098 214.946 204.805 217.421C206.341 219.682 207.109 222.434 207.109 225.677C207.109 228.92 206.255 231.693 204.549 233.997C202.842 236.258 200.538 237.88 197.637 238.861L209.861 258.509H202.629L191.621 239.885H187.077V258.509H180.933V213.709ZM187.077 218.445V234.765H192.005C194.821 234.765 196.975 234.04 198.469 232.589C199.962 231.096 200.709 229.048 200.709 226.445C200.709 223.8 200.069 221.816 198.789 220.493C197.551 219.128 195.482 218.445 192.581 218.445H187.077ZM229.452 235.085C229.452 231.202 227.681 229.261 224.14 229.261C221.878 229.261 218.828 229.858 214.988 231.053L212.94 227.021C216.609 225.101 220.577 224.141 224.844 224.141C230.006 224.141 233.164 225.677 234.316 228.749C234.913 230.328 235.212 232.418 235.212 235.021V248.653C235.212 251.725 236.086 254.157 237.836 255.949L234.444 259.277C233.676 258.808 232.886 258.125 232.076 257.229C231.308 256.29 230.774 255.373 230.476 254.477H230.284C227.937 257.677 224.694 259.277 220.556 259.277C214.454 259.277 211.404 256.098 211.404 249.741C211.404 244.109 215.372 240.717 223.308 239.565L229.452 238.669V235.085ZM217.548 250.445C217.548 252.92 219.062 254.157 222.092 254.157C225.164 254.157 227.617 253.09 229.452 250.957V243.149C224.076 243.874 220.769 244.728 219.532 245.709C218.209 246.776 217.548 248.354 217.548 250.445ZM259.944 224.141C263.102 224.141 265.619 225.058 267.496 226.893C269.374 228.685 270.312 231.544 270.312 235.469V258.509H264.552V235.853C264.552 231.458 262.355 229.261 257.96 229.261C256.68 229.261 255.422 229.581 254.184 230.221C252.947 230.818 251.966 231.522 251.24 232.333V258.509H245.48V234.125L244.968 225.229L249.64 224.589L250.472 228.365H250.728C251.496 227.384 252.648 226.445 254.184 225.549C255.763 224.61 257.683 224.141 259.944 224.141ZM285.67 258.509H279.91V210.829L285.67 210.189V258.509ZM305.382 258.509H298.086L285.862 241.485L298.214 224.589L303.91 226.317L292.006 241.549L305.382 258.509Z" fill="black"/>
<path d="M348.358 339.096H302L339.34 362.929L323 406.114L365 377.841L407 406.114L390.66 362.929L428 339.096H381.642L365 295.114L348.358 339.096Z" fill="#FFED47" stroke="black" stroke-width="3"/>
</svg>
