<svg width="457" height="457" viewBox="0 0 457 457" fill="none" xmlns="http://www.w3.org/2000/svg">
<path d="M386.991 73.8874C371.287 57.1368 -1.41418 56.0899 20.571 73.8874C42.5562 91.685 5.9142 423.557 20.571 440.307C35.2278 457.058 408.976 457.058 386.991 440.307C365.006 423.557 402.695 90.6381 386.991 73.8874Z" fill="#F1F1F1"/>
<path d="M386.991 73.8874C371.287 57.1368 -1.41418 56.0899 20.571 73.8874C42.5562 91.685 5.9142 423.557 20.571 440.307C35.2278 457.058 408.976 457.058 386.991 440.307C365.006 423.557 402.695 90.6381 386.991 73.8874Z" fill="#D5D5D5"/>
<path d="M386.991 73.8874C371.287 57.1368 -1.41418 56.0899 20.571 73.8874C42.5562 91.685 5.9142 423.557 20.571 440.307C35.2278 457.058 408.976 457.058 386.991 440.307C365.006 423.557 402.695 90.6381 386.991 73.8874Z" stroke="black" stroke-width="8"/>
<path d="M412.117 40.3862C396.413 23.6356 23.7118 22.5887 45.6969 40.3862C67.6821 58.1837 31.0401 390.055 45.6969 406.806C60.3537 423.557 434.102 423.557 412.117 406.806C390.132 390.055 427.821 57.1368 412.117 40.3862Z" fill="#F1F1F1"/>
<path d="M412.117 40.3862C396.413 23.6356 23.7118 22.5887 45.6969 40.3862C67.6821 58.1837 31.0401 390.055 45.6969 406.806C60.3537 423.557 434.102 423.557 412.117 406.806C390.132 390.055 427.821 57.1368 412.117 40.3862Z" fill="#F1F1F1"/>
<path d="M412.117 40.3862C396.413 23.6356 23.7118 22.5887 45.6969 40.3862C67.6821 58.1837 31.0401 390.055 45.6969 406.806C60.3537 423.557 434.102 423.557 412.117 406.806C390.132 390.055 427.821 57.1368 412.117 40.3862Z" stroke="black" stroke-width="8"/>
<path d="M436.813 16.9585C421.109 0.207902 48.4075 -0.838997 70.3926 16.9585C92.3778 34.7561 55.7359 366.628 70.3926 383.378C85.0494 400.129 458.798 400.129 436.813 383.378C414.827 366.628 452.517 33.7092 436.813 16.9585Z" fill="white" stroke="black" stroke-width="8"/>
<path d="M121.691 45.2252C229.523 58.8351 295.479 26.3808 397.03 45.2252" stroke="black" stroke-width="3"/>
<path d="M121.691 94.199C229.523 107.809 295.479 75.3545 397.03 94.199" stroke="black" stroke-width="3"/>
<path d="M121.691 307.769C229.523 321.379 295.479 288.925 397.03 307.769" stroke="black" stroke-width="3"/>
<path d="M121.691 356.974C229.523 370.584 295.479 338.13 397.03 356.974" stroke="black" stroke-width="3"/>
<path d="M136.589 135.709H151.053C155.618 135.709 158.754 136.946 160.461 139.421C161.997 141.682 162.765 144.434 162.765 147.677C162.765 150.92 161.912 153.693 160.205 155.997C158.498 158.258 156.194 159.88 153.293 160.861L165.517 180.509H158.285L147.277 161.885H142.733V180.509H136.589V135.709ZM142.733 140.445V156.765H147.661C150.477 156.765 152.632 156.04 154.125 154.589C155.618 153.096 156.365 151.048 156.365 148.445C156.365 145.8 155.725 143.816 154.445 142.493C153.208 141.128 151.138 140.445 148.237 140.445H142.733ZM182.42 146.141C186.089 146.141 188.799 147.25 190.548 149.469C191.999 151.261 192.895 154.269 193.236 158.493C193.364 160.157 193.428 162.226 193.428 164.701L190.804 165.085H174.228C174.228 170.461 175.657 173.853 178.516 175.261C179.711 175.858 181.353 176.157 183.444 176.157C185.535 176.157 187.945 175.474 190.676 174.109L192.468 178.077C188.927 180.21 185.364 181.277 181.78 181.277C172.649 181.277 168.084 175.517 168.084 163.997C168.084 158.536 169.279 154.205 171.668 151.005C174.1 147.762 177.684 146.141 182.42 146.141ZM187.284 160.541C187.284 157.128 186.943 154.738 186.26 153.373C185.577 151.965 183.999 151.261 181.524 151.261C179.092 151.261 177.364 152.093 176.34 153.757C175.316 155.378 174.676 157.64 174.42 160.541H187.284ZM198.577 155.805C198.577 152.861 199.601 150.514 201.649 148.765C203.739 147.016 206.427 146.141 209.713 146.141C212.998 146.141 215.558 146.952 217.393 148.573C219.227 150.152 220.273 152.285 220.529 154.973L214.577 156.189C214.491 154.61 213.979 153.373 213.041 152.477C212.102 151.581 210.886 151.133 209.393 151.133C207.899 151.133 206.747 151.496 205.937 152.221C205.126 152.904 204.721 153.757 204.721 154.781C204.721 155.805 204.891 156.637 205.233 157.277C205.574 157.917 206.129 158.493 206.897 159.005C207.921 159.73 209.35 160.477 211.185 161.245C213.019 161.97 214.363 162.568 215.217 163.037C216.07 163.464 217.051 164.082 218.161 164.893C220.251 166.386 221.297 168.541 221.297 171.357C221.297 174.13 220.187 176.477 217.969 178.397C215.75 180.317 212.827 181.277 209.201 181.277C205.574 181.277 201.969 180.125 198.385 177.821L200.625 173.597C204.635 175.304 207.729 176.157 209.905 176.157C213.403 176.157 215.153 174.792 215.153 172.061C215.153 170.824 214.598 169.8 213.489 168.989C212.422 168.136 210.971 167.325 209.137 166.557C207.302 165.746 205.937 165.128 205.041 164.701C204.187 164.232 203.185 163.57 202.033 162.717C199.729 161.01 198.577 158.706 198.577 155.805ZM229.534 151.581C230.643 149.917 232.179 148.594 234.142 147.613C236.147 146.632 238.473 146.141 241.118 146.141C243.806 146.141 246.046 146.653 247.838 147.677C249.673 148.701 251.017 150.13 251.87 151.965C253.363 155.25 254.11 159.282 254.11 164.061C254.11 168.669 253.043 172.573 250.91 175.773C249.801 177.48 248.243 178.824 246.238 179.805C244.275 180.786 241.95 181.277 239.262 181.277C236.617 181.277 234.377 180.765 232.542 179.741C230.75 178.717 229.427 177.266 228.574 175.389C227.081 172.146 226.334 168.136 226.334 163.357C226.334 158.749 227.401 154.824 229.534 151.581ZM245.854 153.565C245.299 152.882 244.531 152.328 243.55 151.901C242.569 151.474 241.374 151.261 239.966 151.261C238.601 151.261 237.427 151.517 236.446 152.029C235.465 152.541 234.718 153.16 234.206 153.885C233.694 154.568 233.31 155.549 233.054 156.829C232.67 158.749 232.478 160.818 232.478 163.037C232.478 165.256 232.521 166.898 232.606 167.965C232.691 168.989 232.883 170.056 233.182 171.165C233.523 172.274 233.993 173.17 234.59 173.853C235.87 175.389 237.833 176.157 240.478 176.157C241.843 176.157 243.017 175.901 243.998 175.389C244.979 174.877 245.726 174.28 246.238 173.597C246.75 172.872 247.134 171.869 247.39 170.589C247.774 168.669 247.966 166.6 247.966 164.381C247.966 162.162 247.923 160.541 247.838 159.517C247.753 158.45 247.539 157.362 247.198 156.253C246.899 155.144 246.451 154.248 245.854 153.565ZM271.801 181.277C268.899 181.277 266.51 180.381 264.633 178.589C262.755 176.797 261.817 174.024 261.817 170.269V147.165L267.577 146.589V169.565C267.577 173.96 269.646 176.157 273.785 176.157C276.515 176.157 278.883 175.154 280.889 173.149V147.165L286.649 146.589V171.293L287.161 180.189L282.489 180.829L281.785 176.925H281.529C279.097 179.826 275.854 181.277 271.801 181.277ZM310.519 146.141C311.628 146.141 312.46 146.248 313.015 146.461C313.612 146.632 314.103 146.781 314.487 146.909C314.871 146.994 315.105 147.058 315.191 147.101L314.167 152.861C312.887 152.434 311.351 152.221 309.559 152.221C307.809 152.221 306.209 152.989 304.759 154.525C303.351 156.018 302.647 157.832 302.647 159.965V180.509H296.887V156.125L296.375 147.229L301.047 146.589L301.751 153.053H302.007C302.732 150.962 303.82 149.298 305.271 148.061C306.764 146.781 308.513 146.141 310.519 146.141ZM318.022 163.933C318.022 158.6 319.259 154.312 321.734 151.069C324.251 147.784 327.579 146.141 331.718 146.141C335.899 146.141 338.672 147.122 340.038 149.085C341.446 151.005 342.15 153.821 342.15 157.533L336.39 157.917C336.39 155.485 336.027 153.778 335.302 152.797C334.576 151.773 333.104 151.261 330.886 151.261C326.406 151.261 324.166 155.421 324.166 163.741C324.166 172.018 327.024 176.157 332.742 176.157C335.259 176.157 337.926 175.453 340.742 174.045L342.47 177.885C341.403 178.824 339.888 179.634 337.926 180.317C335.963 180.957 333.851 181.277 331.59 181.277C322.544 181.277 318.022 175.496 318.022 163.933ZM361.733 146.141C365.402 146.141 368.111 147.25 369.861 149.469C371.311 151.261 372.207 154.269 372.549 158.493C372.677 160.157 372.741 162.226 372.741 164.701L370.117 165.085H353.541C353.541 170.461 354.97 173.853 357.829 175.261C359.023 175.858 360.666 176.157 362.757 176.157C364.847 176.157 367.258 175.474 369.989 174.109L371.781 178.077C368.239 180.21 364.677 181.277 361.093 181.277C351.962 181.277 347.397 175.517 347.397 163.997C347.397 158.536 348.591 154.205 350.981 151.005C353.413 147.762 356.997 146.141 361.733 146.141ZM366.597 160.541C366.597 157.128 366.255 154.738 365.573 153.373C364.89 151.965 363.311 151.261 360.837 151.261C358.405 151.261 356.677 152.093 355.653 153.757C354.629 155.378 353.989 157.64 353.733 160.541H366.597ZM193.933 213.709H208.397C212.962 213.709 216.098 214.946 217.805 217.421C219.341 219.682 220.109 222.434 220.109 225.677C220.109 228.92 219.255 231.693 217.549 233.997C215.842 236.258 213.538 237.88 210.637 238.861L222.861 258.509H215.629L204.621 239.885H200.077V258.509H193.933V213.709ZM200.077 218.445V234.765H205.005C207.821 234.765 209.975 234.04 211.469 232.589C212.962 231.096 213.709 229.048 213.709 226.445C213.709 223.8 213.069 221.816 211.789 220.493C210.551 219.128 208.482 218.445 205.581 218.445H200.077ZM242.452 235.085C242.452 231.202 240.681 229.261 237.14 229.261C234.878 229.261 231.828 229.858 227.988 231.053L225.94 227.021C229.609 225.101 233.577 224.141 237.844 224.141C243.006 224.141 246.164 225.677 247.316 228.749C247.913 230.328 248.212 232.418 248.212 235.021V248.653C248.212 251.725 249.086 254.157 250.836 255.949L247.444 259.277C246.676 258.808 245.886 258.125 245.076 257.229C244.308 256.29 243.774 255.373 243.476 254.477H243.284C240.937 257.677 237.694 259.277 233.556 259.277C227.454 259.277 224.404 256.098 224.404 249.741C224.404 244.109 228.372 240.717 236.308 239.565L242.452 238.669V235.085ZM230.548 250.445C230.548 252.92 232.062 254.157 235.092 254.157C238.164 254.157 240.617 253.09 242.452 250.957V243.149C237.076 243.874 233.769 244.728 232.532 245.709C231.209 246.776 230.548 248.354 230.548 250.445ZM272.944 224.141C276.102 224.141 278.619 225.058 280.496 226.893C282.374 228.685 283.312 231.544 283.312 235.469V258.509H277.552V235.853C277.552 231.458 275.355 229.261 270.96 229.261C269.68 229.261 268.422 229.581 267.184 230.221C265.947 230.818 264.966 231.522 264.24 232.333V258.509H258.48V234.125L257.968 225.229L262.64 224.589L263.472 228.365H263.728C264.496 227.384 265.648 226.445 267.184 225.549C268.763 224.61 270.683 224.141 272.944 224.141ZM298.67 258.509H292.91V210.829L298.67 210.189V258.509ZM318.382 258.509H311.086L298.862 241.485L311.214 224.589L316.91 226.317L305.006 241.549L318.382 258.509Z" fill="black"/>
<path d="M317.745 310.151H246L303.789 347.082L278.5 414L343.5 370.189L408.5 414L383.211 347.082L441 310.151H369.255L343.5 242L317.745 310.151Z" fill="#FFED47" stroke="black" stroke-width="3"/>
</svg>
