<svg width="378" height="336" viewBox="0 0 378 336" fill="none" xmlns="http://www.w3.org/2000/svg">
<path d="M135.155 131.698H3.28452C0.28462 131.698 -0.857838 135.615 1.67158 137.228L107.114 204.464C108.312 205.228 108.81 206.727 108.306 208.056L61.6694 331.192C60.6338 333.926 63.7228 336.375 66.1491 334.744L187.326 253.249C188.338 252.568 189.662 252.568 190.674 253.249L311.851 334.744C314.277 336.375 317.366 333.926 316.331 331.192L269.694 208.056C269.19 206.727 269.688 205.228 270.886 204.464L376.328 137.228C378.858 135.615 377.715 131.698 374.716 131.698H242.845C241.598 131.698 240.481 130.927 240.04 129.761L191.806 2.40743C190.827 -0.175807 187.173 -0.17582 186.195 2.40742L137.96 129.761C137.519 130.927 136.402 131.698 135.155 131.698Z" fill="#FF9447"/>
</svg>
