<svg width="300" height="300" viewBox="0 0 300 300" fill="none" xmlns="http://www.w3.org/2000/svg">
<path d="M294.5 150C294.5 230.373 229.789 295.5 150 295.5C70.2108 295.5 5.5 230.373 5.5 150C5.5 69.6266 70.2108 4.5 150 4.5C229.789 4.5 294.5 69.6266 294.5 150Z" stroke="#35D3F5" stroke-width="5"/>
<path d="M150.122 170.281C174.426 170.281 194.128 150.579 194.128 126.275C194.128 101.972 174.426 82.2704 150.122 82.2704C125.819 82.2704 106.117 101.972 106.117 126.275C106.117 150.579 125.819 170.281 150.122 170.281Z" stroke="#35D3F5" stroke-width="8"/>
<path d="M76.201 222.475C81.6232 207.205 91.6407 193.99 104.877 184.644C118.113 175.298 133.919 170.281 150.122 170.281C166.326 170.281 182.131 175.298 195.368 184.644C208.604 193.99 218.622 207.205 224.044 222.475" stroke="#35D3F5" stroke-width="8"/>
<path d="M137.143 142.061C143.289 146.388 158.038 146.388 164.184 142.061" stroke="#35D3F5" stroke-width="5"/>
<path d="M198.255 74.6067L202.918 73.6581L203.327 75.6677L198.664 76.6163L199.739 81.8987L197.603 82.3332L196.528 77.0508L191.866 77.9994L191.457 75.9898L196.119 75.0412L195.126 70.1607L197.262 69.7262L198.255 74.6067ZM214.101 80.7226L211.965 81.1572L209.085 66.998L205.121 69.4427L204.729 67.5135L210.35 63.99L210.683 63.9222L214.101 80.7226Z" fill="#E28237"/>
</svg>
