<svg width="300" height="300" viewBox="0 0 300 300" fill="none" xmlns="http://www.w3.org/2000/svg">
<path d="M287 150C287 226.279 225.599 288 150 288C74.4008 288 13 226.279 13 150C13 73.7207 74.4008 12 150 12C225.599 12 287 73.7207 287 150Z" stroke="#64BDD0" stroke-width="20"/>
<path d="M150.122 170.281C174.426 170.281 194.128 150.579 194.128 126.275C194.128 101.972 174.426 82.2704 150.122 82.2704C125.819 82.2704 106.117 101.972 106.117 126.275C106.117 150.579 125.819 170.281 150.122 170.281Z" stroke="#64BDD0" stroke-width="8"/>
<path d="M76.201 222.475C81.6232 207.205 91.6407 193.99 104.877 184.644C118.113 175.298 133.919 170.281 150.122 170.281C166.326 170.281 182.131 175.298 195.368 184.644C208.604 193.99 218.622 207.205 224.044 222.475" stroke="#64BDD0" stroke-width="8"/>
<path d="M137.143 142.061C143.288 146.388 158.038 146.388 164.184 142.061" stroke="#64BDD0" stroke-width="5"/>
</svg>
