<svg width="300" height="300" viewBox="0 0 300 300" fill="none" xmlns="http://www.w3.org/2000/svg">
<path d="M294.5 150C294.5 230.373 229.789 295.5 150 295.5C70.2108 295.5 5.5 230.373 5.5 150C5.5 69.6266 70.2108 4.5 150 4.5C229.789 4.5 294.5 69.6266 294.5 150Z" stroke="#44AA00" stroke-width="5"/>
<path d="M80 116.91C141.756 155.927 139.297 225 139.297 225H165.963C163.299 182.793 179.635 144.668 220 111.707C194.834 129.83 169.84 148.622 154.737 205.925C155.166 110.78 117.26 87.8549 89.825 75C135.944 103.841 146.526 141.253 142.81 195.518C133.059 158.395 115.301 131.744 80.0016 116.906L80 116.91Z" fill="#44AA00"/>
</svg>
