<svg width="300" height="300" viewBox="0 0 300 300" fill="none" xmlns="http://www.w3.org/2000/svg">
<path d="M287 150C287 226.279 225.599 288 150 288C74.4008 288 13 226.279 13 150C13 73.7207 74.4008 12 150 12C225.599 12 287 73.7207 287 150Z" stroke="#44AA00" stroke-width="20"/>
<path d="M80 116.91C141.756 155.927 139.297 225 139.297 225H165.963C163.299 182.793 179.635 144.668 220 111.707C194.834 129.83 169.84 148.622 154.737 205.925C155.166 110.78 117.26 87.8549 89.825 75C135.944 103.841 146.526 141.253 142.81 195.518C133.059 158.395 115.301 131.744 80.0016 116.906L80 116.91Z" fill="#44AA00"/>
</svg>
