<svg width="628" height="696" viewBox="0 0 628 696" fill="none" xmlns="http://www.w3.org/2000/svg">
<ellipse cx="314" cy="512" rx="314" ry="184" fill="#4BBF57"/>
<rect x="116.343" y="483.573" width="19.1828" height="79.8879" rx="9" transform="rotate(-171.5 116.343 483.573)" fill="#FAF7C2"/>
<rect x="177.792" y="482.194" width="18.0826" height="79.2188" rx="9" transform="rotate(170.5 177.792 482.194)" fill="#FAF7C2"/>
<path d="M141.071 390.443C139.993 386.491 134.375 386.522 133.342 390.487L126.342 417.336L106.905 417.336L109.487 357L163.837 357L166.905 417.336L148.863 419L141.071 390.443Z" fill="#927E4B"/>
<rect x="71" y="280.364" width="18" height="57.0663" rx="9" transform="rotate(-52.5 71 280.364)" fill="#FAF7C2"/>
<rect x="163.682" y="318.548" width="17.6973" height="57.0664" rx="8.84864" transform="rotate(-133 163.682 318.548)" fill="#FAF7C2"/>
<rect x="144.026" y="336.917" width="17.7719" height="57.0664" rx="1" transform="rotate(-133 144.026 336.917)" fill="#863434"/>
<rect x="91.5781" y="296.32" width="18.2976" height="57.0664" rx="1" transform="rotate(-51.5 91.5781 296.32)" fill="#863434"/>
<path d="M110.726 275.836C110.895 267.811 114.589 259.906 121.928 256.657C136.86 250.046 151.29 252.515 160.694 263.117C171.407 275.195 165.251 345.486 164.143 357.194C164.05 358.172 163.26 358.888 162.279 358.945L111.065 361.876C109.901 361.943 108.927 361.003 108.952 359.837L110.726 275.836Z" fill="#863434"/>
<circle cx="136.405" cy="231.5" r="47.5" fill="#FAF7C2"/>
<path d="M184.905 231.5C184.905 257.734 163.639 209.5 137.405 209.5C111.172 209.5 89.9054 257.734 89.9054 231.5C89.9054 205.266 111.172 184 137.405 184C163.639 184 184.905 205.266 184.905 231.5Z" fill="#34200D"/>
<rect x="475.041" y="518.983" width="18.7697" height="79.8879" rx="9" transform="rotate(-175.5 475.041 518.983)" fill="#D3C08F"/>
<rect x="522.037" y="518.314" width="18.176" height="45.8788" rx="9" transform="rotate(171 522.037 518.314)" fill="#D3C08F"/>
<path d="M490.24 434.389C489.889 432.123 486.622 432.134 486.286 434.402L477.437 494.074L458 494.074L460.582 388L514.932 388L518 494.074L499.958 497L490.24 434.389Z" fill="#4B6392"/>
<path d="M461.725 306.836C461.895 298.811 465.589 290.906 472.928 287.657C487.86 281.046 502.29 283.515 511.694 294.117C522.407 306.195 516.251 376.486 515.143 388.194C515.05 389.172 514.26 389.888 513.279 389.945L462.065 392.876C460.901 392.943 459.927 392.003 459.951 390.837L461.725 306.836Z" fill="#A519A8"/>
<circle cx="487.405" cy="262.5" r="47.5" fill="#D3C08F"/>
<path d="M553 342C540.5 364.5 514.639 232.5 488.405 232.5C462.172 232.5 452 319.5 441 351C423 346.065 414 215 488.405 215C552 218.5 553 315.767 553 342Z" fill="#34200D"/>
<rect x="514.682" y="349.548" width="17.6973" height="57.0664" rx="8.84864" transform="rotate(-133 514.682 349.548)" fill="#D3C08F"/>
<rect x="495.026" y="367.917" width="17.7719" height="57.0664" rx="1" transform="rotate(-133 495.026 367.917)" fill="#A519A8"/>
<rect x="422" y="311.364" width="17.5712" height="57.0663" rx="8.78559" transform="rotate(-52.5 422 311.364)" fill="#D3C08F"/>
<rect x="442.578" y="327.32" width="18.2976" height="57.0664" rx="1" transform="rotate(-51.5 442.578 327.32)" fill="#A519A8"/>
<rect x="285.343" y="612.573" width="19.1828" height="79.8879" rx="9" transform="rotate(-171.5 285.343 612.573)" fill="#856208"/>
<rect x="346.792" y="611.194" width="18.0826" height="79.2188" rx="9" transform="rotate(170.5 346.792 611.194)" fill="#856208"/>
<path d="M310.071 519.443C308.993 515.491 303.375 515.522 302.342 519.487L295.342 546.336L275.905 546.336L278.487 486L332.837 486L335.905 546.336L317.863 548L310.071 519.443Z" fill="#4B6392"/>
<rect x="240" y="409.364" width="18" height="57.0663" rx="9" transform="rotate(-52.5 240 409.364)" fill="#856208"/>
<rect x="332.682" y="447.548" width="17.6973" height="57.0664" rx="8.84864" transform="rotate(-133 332.682 447.548)" fill="#856208"/>
<rect x="313.026" y="465.917" width="17.7719" height="57.0664" rx="1" transform="rotate(-133 313.026 465.917)" fill="#19501E"/>
<rect x="260.578" y="425.32" width="18.2976" height="57.0664" rx="1" transform="rotate(-51.5 260.578 425.32)" fill="#19501E"/>
<path d="M279.726 404.836C279.895 396.811 283.589 388.906 290.928 385.657C305.86 379.046 320.29 381.515 329.694 392.117C340.407 404.195 334.251 474.486 333.143 486.194C333.05 487.172 332.26 487.888 331.279 487.945L280.065 490.876C278.901 490.943 277.927 490.003 277.952 488.837L279.726 404.836Z" fill="#19501E"/>
<circle cx="305.405" cy="360.5" r="47.5" fill="#856208"/>
<path d="M353.905 360.5C353.905 386.734 332.639 338.5 306.405 338.5C280.172 338.5 258.905 386.734 258.905 360.5C258.905 334.266 280.172 313 306.405 313C332.639 313 353.905 334.266 353.905 360.5Z" fill="#34200D"/>
<rect x="275.951" y="64.1606" width="64.8092" height="5.65333" transform="rotate(-53.5 275.951 64.1606)" fill="#C66B38"/>
<rect x="363.679" y="55.3854" width="64.8092" height="5.65333" transform="rotate(-143.5 363.679 55.3854)" fill="#C66B38"/>
<line x1="315.445" y1="19.2274" x2="291.445" y2="66.2274" stroke="#292929"/>
<line x1="315.464" y1="19.1857" x2="297.464" y2="64.1857" stroke="#292929"/>
<line x1="315.489" y1="19.1041" x2="305.489" y2="66.1041" stroke="#292929"/>
<line x1="315.499" y1="19.0319" x2="312.499" y2="66.0319" stroke="#292929"/>
<line x1="315.498" y1="18.9576" x2="319.498" y2="65.9576" stroke="#292929"/>
<line x1="315.488" y1="18.8916" x2="325.488" y2="63.8916" stroke="#292929"/>
<line x1="315.474" y1="18.8419" x2="330.474" y2="63.8419" stroke="#292929"/>
<line x1="315.457" y1="18.7969" x2="335.457" y2="63.7969" stroke="#292929"/>
<line x1="315.432" y1="18.7474" x2="339.432" y2="59.7474" stroke="#292929"/>
<line x1="315.411" y1="18.7154" x2="342.411" y2="57.7154" stroke="#292929"/>
<line x1="315.374" y1="18.6678" x2="347.374" y2="54.6678" stroke="#292929"/>
<line x1="315.338" y1="18.6319" x2="352.338" y2="52.6319" stroke="#292929"/>
<rect x="433.015" y="95.7425" width="64.8092" height="5.65333" transform="rotate(46.5 433.015 95.7425)" fill="#DC5252"/>
<rect x="426.423" y="183.661" width="64.8092" height="5.65333" transform="rotate(-43.5 426.423 183.661)" fill="#DC5252"/>
<line x1="470.407" y1="142.439" x2="428.289" y2="110.642" stroke="#292929"/>
<line x1="470.445" y1="142.465" x2="429.254" y2="116.924" stroke="#292929"/>
<line x1="470.521" y1="142.504" x2="425.972" y2="124.494" stroke="#292929"/>
<line x1="470.59" y1="142.526" x2="424.825" y2="131.41" stroke="#292929"/>
<line x1="470.664" y1="142.538" x2="423.683" y2="138.316" stroke="#292929"/>
<line x1="470.731" y1="142.54" x2="424.678" y2="144.574" stroke="#292929"/>
<line x1="470.782" y1="142.535" x2="423.861" y2="149.493" stroke="#292929"/>
<line x1="470.829" y1="142.525" x2="423.04" y2="154.407" stroke="#292929"/>
<line x1="470.882" y1="142.509" x2="426.338" y2="159.025" stroke="#292929"/>
<line x1="470.917" y1="142.494" x2="427.821" y2="162.312" stroke="#292929"/>
<line x1="470.971" y1="142.466" x2="429.961" y2="167.728" stroke="#292929"/>
<line x1="471.012" y1="142.437" x2="431.104" y2="172.971" stroke="#292929"/>
<rect x="124.196" y="121.517" width="64.8092" height="5.65333" transform="rotate(-171.5 124.196 121.517)" fill="#3860C6"/>
<rect x="75.2626" y="48.1775" width="64.8091" height="5.65333" transform="rotate(98.5 75.2626 48.1775)" fill="#3860C6"/>
<line x1="65.9812" y1="107.74" x2="118.747" y2="106.866" stroke="#292929"/>
<line x1="65.9355" y1="107.743" x2="114.119" y2="102.51" stroke="#292929"/>
<line x1="65.8518" y1="107.76" x2="112.045" y2="94.5239" stroke="#292929"/>
<line x1="65.7834" y1="107.785" x2="108.69" y2="88.3684" stroke="#292929"/>
<line x1="65.7182" y1="107.82" x2="105.339" y2="82.2233" stroke="#292929"/>
<line x1="65.6646" y1="107.86" x2="100.703" y2="77.9045" stroke="#292929"/>
<line x1="65.6272" y1="107.896" x2="98.3178" y2="73.5252" stroke="#292929"/>
<line x1="65.5957" y1="107.932" x2="95.9389" y2="69.1469" stroke="#292929"/>
<line x1="65.5639" y1="107.978" x2="90.4974" y2="67.5387" stroke="#292929"/>
<line x1="65.5452" y1="108.011" x2="87.3044" y2="65.8619" stroke="#292929"/>
<line x1="65.5208" y1="108.066" x2="82.2838" y2="62.9109" stroke="#292929"/>
<line x1="65.5056" y1="108.114" x2="78.1554" y2="59.4832" stroke="#292929"/>
<line x1="530.037" y1="91.7646" x2="564.037" y2="129.765" stroke="black" stroke-width="0.1"/>
<line x1="530.037" y1="90.7646" x2="564.037" y2="128.765" stroke="black" stroke-width="0.1"/>
<line x1="530.037" y1="89.7646" x2="564.037" y2="127.765" stroke="black" stroke-width="0.1"/>
<line x1="530.037" y1="88.7646" x2="564.037" y2="126.765" stroke="black" stroke-width="0.1"/>
<line x1="605.032" y1="91.836" x2="564.037" y2="126.842" stroke="black" stroke-width="0.1"/>
<line x1="606.033" y1="91.8359" x2="564.038" y2="127.842" stroke="black" stroke-width="0.1"/>
<line x1="606.033" y1="92.8359" x2="564.038" y2="128.842" stroke="black" stroke-width="0.1"/>
<line x1="607.033" y1="92.8359" x2="564.038" y2="129.842" stroke="black" stroke-width="0.1"/>
<path d="M574.409 55.8562L607.603 94.0408L563.899 132.032L530.705 93.8473L574.409 55.8562Z" stroke="#259D40"/>
<path d="M575.782 47L609.931 86.2834L564.149 126.081L530 86.798L575.782 47Z" fill="#259D40"/>
<path d="M542.509 91.799L542.509 82.298" stroke="black"/>
<path d="M542 81.798H545V91.798H542V81.798Z" fill="#259D40"/>
<path d="M535 90.1138L530 93.798V86.798L535 90.1138Z" fill="#259D40"/>
<line x1="278.037" y1="224.765" x2="312.037" y2="262.765" stroke="black" stroke-width="0.1"/>
<line x1="278.037" y1="223.765" x2="312.037" y2="261.765" stroke="black" stroke-width="0.1"/>
<line x1="278.037" y1="222.765" x2="312.037" y2="260.765" stroke="black" stroke-width="0.1"/>
<line x1="278.037" y1="221.765" x2="312.037" y2="259.765" stroke="black" stroke-width="0.1"/>
<line x1="353.032" y1="224.836" x2="312.037" y2="259.842" stroke="black" stroke-width="0.1"/>
<line x1="354.033" y1="224.836" x2="312.038" y2="260.842" stroke="black" stroke-width="0.1"/>
<line x1="354.033" y1="225.836" x2="312.038" y2="261.842" stroke="black" stroke-width="0.1"/>
<line x1="355.033" y1="225.836" x2="312.038" y2="262.842" stroke="black" stroke-width="0.1"/>
<path d="M322.409 188.856L355.603 227.041L311.899 265.032L278.705 226.847L322.409 188.856Z" stroke="#259D40"/>
<path d="M323.782 180L357.931 219.283L312.149 259.081L278 219.798L323.782 180Z" fill="#626451"/>
<path d="M323.782 180L357.931 219.283L312.149 259.081L278 219.798L323.782 180Z" fill="#626451"/>
<path d="M323.782 180L357.931 219.283L312.149 259.081L278 219.798L323.782 180Z" fill="#E96161"/>
<path d="M283 223.114L278 226.798V219.798L283 223.114Z" fill="#626451"/>
<path d="M283 223.114L278 226.798V219.798L283 223.114Z" fill="#626451"/>
<path d="M283 223.114L278 226.798V219.798L283 223.114Z" fill="#E96161"/>
<line x1="183.037" y1="128.765" x2="217.037" y2="166.765" stroke="black" stroke-width="0.1"/>
<line x1="183.037" y1="127.765" x2="217.037" y2="165.765" stroke="black" stroke-width="0.1"/>
<line x1="183.037" y1="126.765" x2="217.037" y2="164.765" stroke="black" stroke-width="0.1"/>
<line x1="183.037" y1="125.765" x2="217.037" y2="163.765" stroke="black" stroke-width="0.1"/>
<line x1="258.032" y1="128.836" x2="217.037" y2="163.842" stroke="black" stroke-width="0.1"/>
<line x1="259.033" y1="128.836" x2="217.038" y2="164.842" stroke="black" stroke-width="0.1"/>
<line x1="259.033" y1="129.836" x2="217.038" y2="165.842" stroke="black" stroke-width="0.1"/>
<line x1="260.033" y1="129.836" x2="217.038" y2="166.842" stroke="black" stroke-width="0.1"/>
<path d="M227.409 92.8562L260.603 131.041L216.899 169.032L183.705 130.847L227.409 92.8562Z" stroke="#259D40"/>
<path d="M228.782 84L262.931 123.283L217.149 163.081L183 123.798L228.782 84Z" fill="#626451"/>
<path d="M228.782 84L262.931 123.283L217.149 163.081L183 123.798L228.782 84Z" fill="#626451"/>
<path d="M228.782 84L262.931 123.283L217.149 163.081L183 123.798L228.782 84Z" fill="#4F76DA"/>
<path d="M188 127.114L183 130.798V123.798L188 127.114Z" fill="#626451"/>
<path d="M188 127.114L183 130.798V123.798L188 127.114Z" fill="#626451"/>
<path d="M188 127.114L183 130.798V123.798L188 127.114Z" fill="#4F76DA"/>
</svg>
