<svg width="300" height="300" viewBox="0 0 300 300" fill="none" xmlns="http://www.w3.org/2000/svg">
<path d="M287 150C287 226.279 225.599 288 150 288C74.4008 288 13 226.279 13 150C13 73.7207 74.4008 12 150 12C225.599 12 287 73.7207 287 150Z" stroke="#F7D837" stroke-width="20"/>
<g clip-path="url(#clip0)">
<path d="M212.577 75.1758C210.262 75.2579 206.579 75.3868 204.393 75.4571C202.207 75.5391 198.922 75.6446 197.087 75.7032C195.251 75.7618 192.048 75.8672 189.955 75.9375C187.863 76.0079 184.741 76.1133 183 76.1719C181.269 76.2305 177.774 76.3477 175.249 76.4297L170.654 76.5704L146.081 101.648C114.002 134.379 112.097 136.324 112.132 136.359C112.167 136.395 115.826 136.535 125.833 136.875C129.562 137.004 134.8 137.191 137.465 137.285C140.13 137.379 142.469 137.461 142.644 137.461C143.006 137.461 144.772 135.691 107.736 172.559L93.8477 186.387L96.9808 186.469C98.6993 186.504 103.376 186.598 107.362 186.68C111.348 186.75 114.622 186.832 114.633 186.844C114.657 186.867 107.163 195.176 97.9979 205.324C88.8325 215.473 81.3038 223.828 81.2688 223.91C81.1869 224.121 81.8416 224.895 82.052 224.813C82.1455 224.777 90.0951 220.359 99.7047 214.992C109.314 209.613 127.972 199.195 141.148 191.836C154.334 184.477 165.148 178.418 165.183 178.383C165.218 178.336 165.183 178.055 165.09 177.738L164.926 177.176L159.7 177.246C147.998 177.398 135.887 177.527 135.852 177.492C135.805 177.445 139.616 174.398 173.215 147.539C187.044 136.488 198.361 127.406 198.361 127.359C198.373 127.301 190.715 127.254 181.363 127.242L164.353 127.207L175.424 116.836C223.472 71.8829 219.182 75.9375 219.182 75.4454V75L217.989 75.0118C217.323 75.0235 214.891 75.0938 212.577 75.1758Z" fill="#F7D837"/>
</g>
<defs>
<clipPath id="clip0">
<rect width="138.182" height="150" fill="white" transform="translate(81 75)"/>
</clipPath>
</defs>
</svg>
