<svg width="100" height="100" viewBox="0 0 100 100" fill="none" xmlns="http://www.w3.org/2000/svg">
<path d="M95 50C95 55.9095 93.836 61.7611 91.5746 67.2208C89.3131 72.6804 85.9984 77.6412 81.8198 81.8198C77.6412 85.9984 72.6804 89.3131 67.2208 91.5746C61.7611 93.836 55.9095 95 50 95C44.0905 95 38.2389 93.836 32.7792 91.5746C27.3196 89.3131 22.3588 85.9984 18.1802 81.8198C14.0016 77.6412 10.6869 72.6804 8.42542 67.2208C6.16396 61.7611 5 55.9095 5 50C5 44.0905 6.16396 38.2389 8.42542 32.7792C10.6869 27.3196 14.0016 22.3588 18.1802 18.1802C22.3588 14.0016 27.3196 10.6869 32.7793 8.42542C38.2389 6.16396 44.0905 5 50 5C55.9095 5 61.7611 6.16396 67.2208 8.42542C72.6804 10.6869 77.6412 14.0016 81.8198 18.1802C85.9984 22.3588 89.3131 27.3196 91.5746 32.7793C93.836 38.2389 95 44.0905 95 50L95 50Z" stroke="#F5F5F5" stroke-width="10" stroke-linejoin="round"/>
<path d="M95 50C95 59.6293 91.9111 69.0047 86.1874 76.7483C80.4636 84.4919 72.4069 90.1952 63.2012 93.0201C53.9956 95.845 44.1265 95.6424 35.0445 92.4421C25.9625 89.2419 18.1466 83.2127 12.7454 75.2408C7.34427 67.2689 4.64275 57.7746 5.03791 48.1534C5.43306 38.5321 8.90405 29.2914 14.9407 21.7892C20.9774 14.287 29.2615 8.91914 38.5753 6.47442C47.8891 4.0297 57.7416 4.6371 66.6846 8.20736" stroke="#292929" stroke-width="10"/>
</svg>
